<?xml version="1.0" standalone="no"?>
<!DOCTYPE svg PUBLIC "-//W3C//DTD SVG 20010904//EN"
 "http://www.w3.org/TR/2001/REC-SVG-20010904/DTD/svg10.dtd">
<svg version="1.0" xmlns="http://www.w3.org/2000/svg"
 width="192.000000pt" height="192.000000pt" viewBox="0 0 192.000000 192.000000"
 preserveAspectRatio="xMidYMid meet">
<metadata>
Created by potrace 1.14, written by Peter Selinger 2001-2017
</metadata>
<g transform="translate(0.000000,192.000000) scale(0.100000,-0.100000)"
fill="#000000" stroke="none">
<path d="M222 1422 c-7 -2 -11 -87 -11 -269 -1 -298 -2 -305 -68 -322 -35 -9
-91 -7 -120 4 -10 3 -13 -14 -13 -69 l0 -73 43 -14 c52 -17 179 -17 230 0 65
22 118 79 134 144 10 43 9 589 -2 595 -11 7 -174 11 -193 4z"/>
<path d="M525 1420 c-2 -3 -3 -132 -2 -285 2 -261 4 -283 23 -325 49 -106 144
-153 308 -152 79 0 148 16 194 46 53 33 73 59 93 118 16 47 18 87 16 328 l-2
275 -91 0 -90 0 -1 -260 c-1 -298 -6 -324 -66 -344 -40 -13 -92 -10 -125 8
-45 24 -50 58 -50 329 0 139 -3 256 -6 260 -9 8 -196 10 -201 2z"/>
<path d="M1266 1421 c-2 -6 0 -720 3 -741 2 -15 168 -13 173 3 2 6 3 112 3
235 -1 122 2 219 6 215 6 -7 50 -83 196 -338 18 -33 41 -75 50 -92 l17 -33
101 0 101 0 -1 368 c-1 202 -3 372 -3 378 -1 7 -32 10 -84 10 l-83 -1 -3 -207
c-1 -127 -6 -208 -12 -208 -6 0 -9 3 -8 8 1 4 -23 50 -54 102 -31 52 -65 112
-77 133 -12 20 -31 54 -42 75 -12 20 -29 51 -39 67 l-17 30 -112 1 c-61 0
-113 -2 -115 -5z"/>
</g>
</svg>
